<?xml version="1.0" encoding="utf-8"?>
<!-- Generator: Adobe Illustrator 16.0.0, SVG Export Plug-In . SVG Version: 6.00 Build 0)  -->
<!DOCTYPE svg PUBLIC "-//W3C//DTD SVG 1.1//EN" "http://www.w3.org/Graphics/SVG/1.1/DTD/svg11.dtd">
<svg version="1.1" id="Layer_1" xmlns="http://www.w3.org/2000/svg" xmlns:xlink="http://www.w3.org/1999/xlink" x="0px" y="0px"
	 width="15.375px" height="14.396px" viewBox="0 0 15.375 14.396" enable-background="new 0 0 15.375 14.396" xml:space="preserve">
<path fill-rule="evenodd" clip-rule="evenodd" fill="#FFFFFF" d="M13.601,6.09h-1.337c0.097,0.354,0.152,0.727,0.152,1.107
	c0,2.447-2.116,4.432-4.728,4.432c-2.613,0-4.732-1.984-4.732-4.432c0-0.381,0.058-0.753,0.154-1.107H1.772v6.09
	c0,0.306,0.266,0.555,0.59,0.555h10.646c0.325,0,0.592-0.249,0.592-0.555V6.09z M13.601,2.215c0-0.307-0.267-0.553-0.592-0.553
	h-1.774c-0.329,0-0.589,0.246-0.589,0.553v1.659c0,0.307,0.26,0.556,0.589,0.556h1.774c0.325,0,0.592-0.249,0.592-0.556V2.215z
	 M7.688,4.43c-1.634,0-2.959,1.24-2.959,2.768c0,1.529,1.325,2.77,2.959,2.77c1.633,0,2.957-1.24,2.957-2.77
	C10.646,5.67,9.321,4.43,7.688,4.43 M13.601,14.396H1.772C0.793,14.396,0,13.651,0,12.734V1.662C0,0.742,0.793,0,1.772,0h11.828
	c0.979,0,1.774,0.742,1.774,1.662v11.072C15.375,13.651,14.579,14.396,13.601,14.396"/>
</svg>
