<svg id="Layer_1" data-name="Layer 1" xmlns="http://www.w3.org/2000/svg" viewBox="0 0 170 15"><defs><style>.cls-1{fill:#69f7eb;}</style></defs><title>Logo-01_hover</title><path class="cls-1" d="M101.83,0a0.84,0.84,0,0,0-.84.83V14.17a0.84,0.84,0,0,0,1.68,0V0.83A0.84,0.84,0,0,0,101.83,0"/><path class="cls-1" d="M110.25,8.33h0a0.84,0.84,0,0,0,.84-0.83h0a0.84,0.84,0,0,1,.84-0.83,0.84,0.84,0,0,0,.84-0.83V2.5a0.84,0.84,0,0,0-.84-0.83,0.84,0.84,0,0,1-.84-0.83h0a0.84,0.84,0,0,0-1.69,0,0.84,0.84,0,0,0,.84.83,0.84,0.84,0,0,1,.84.83V5.83a0.84,0.84,0,0,1-.84.83,0.84,0.84,0,0,0-.84.83,0.84,0.84,0,0,1-.84.83,0.83,0.83,0,1,0,0,1.67,0.84,0.84,0,0,1,.84.83V12.5a0.84,0.84,0,0,0,.84.83,0.84,0.84,0,0,1,.84.83,0.84,0.84,0,1,0,.84-0.83,0.84,0.84,0,0,1-.84-0.83V10.83a0.84,0.84,0,0,0-.84-0.83,0.83,0.83,0,1,1,0-1.67"/><path class="cls-1" d="M118.66,0a0.84,0.84,0,0,0-.84.83V14.17a0.84,0.84,0,0,0,1.68,0V0.83A0.84,0.84,0,0,0,118.66,0"/><path class="cls-1" d="M164.11,0a0.84,0.84,0,0,0-.84.83V14.17a0.84,0.84,0,0,0,1.68,0V0.83A0.84,0.84,0,0,0,164.11,0"/><path class="cls-1" d="M170,0.83a0.84,0.84,0,0,1-1.68,0,0.84,0.84,0,0,1,1.68,0"/><path class="cls-1" d="M159.9,0.83A0.84,0.84,0,1,1,159.06,0a0.84,0.84,0,0,1,.84.83"/><path class="cls-1" d="M51.33,0a0.84,0.84,0,0,0-.84.83V14.17a0.84,0.84,0,0,0,1.68,0V0.83A0.84,0.84,0,0,0,51.33,0"/><path class="cls-1" d="M57.23,7.5a0.84,0.84,0,1,1,.84.83,0.84,0.84,0,0,1-.84-0.83"/><path class="cls-1" d="M60.59,14.17a0.84,0.84,0,0,1,.84-0.83,0.83,0.83,0,1,0-.84-0.83,0.84,0.84,0,0,1-.84.83,0.83,0.83,0,1,0,.84.83h0Z"/><path class="cls-1" d="M61.43,1.67A0.84,0.84,0,0,1,60.59.83h0a0.84,0.84,0,0,0-1.68,0,0.84,0.84,0,0,0,.84.83,0.84,0.84,0,0,1,.84.83,0.84,0.84,0,1,0,.84-0.83"/><path class="cls-1" d="M19.35,13.33a0.84,0.84,0,0,1-.84-0.83V0.83a0.84,0.84,0,0,0-1.68,0V12.5a0.84,0.84,0,0,0,.84.83,0.84,0.84,0,0,1,.84.83,0.84,0.84,0,1,0,.84-0.83"/><path class="cls-1" d="M27.77,13.33h0a0.84,0.84,0,0,0,.84-0.83V0.83a0.84,0.84,0,0,0-1.68,0V12.5h0a0.84,0.84,0,0,1-.84.83h0a0.83,0.83,0,1,0,.84.83h0a0.84,0.84,0,0,1,.84-0.83"/><path class="cls-1" d="M34.5,0a0.84,0.84,0,0,0-.84.83V14.17a0.84,0.84,0,0,0,1.68,0V0.83A0.84,0.84,0,0,0,34.5,0"/><path class="cls-1" d="M44.6,1.67A0.84,0.84,0,0,1,43.76.83a0.84,0.84,0,1,0-.84.83,0.84,0.84,0,0,1,.84.83V5.83a0.84,0.84,0,0,1-.84.83,0.83,0.83,0,1,0,.84.83,0.84,0.84,0,0,1,.84-0.83,0.84,0.84,0,0,0,.84-0.83V2.5a0.84,0.84,0,0,0-.84-0.83"/><path class="cls-1" d="M68.17,0a0.84,0.84,0,0,0-.84.83V14.17a0.84,0.84,0,0,0,1.68,0V0.83A0.84,0.84,0,0,0,68.17,0"/><path class="cls-1" d="M76.58,8.33h0a0.84,0.84,0,0,0,.84-0.83h0a0.84,0.84,0,0,1,.84-0.83,0.84,0.84,0,0,0,.84-0.83V2.5a0.84,0.84,0,0,0-.84-0.83A0.84,0.84,0,0,1,77.42.83h0a0.84,0.84,0,1,0-.84.83,0.84,0.84,0,0,1,.84.83V5.83a0.84,0.84,0,0,1-.84.83,0.84,0.84,0,0,0-.84.83,0.84,0.84,0,0,1-.84.83,0.83,0.83,0,1,0,0,1.67,0.84,0.84,0,0,1,.84.83V12.5a0.84,0.84,0,0,0,.84.83,0.84,0.84,0,0,1,.84.83,0.84,0.84,0,1,0,.84-0.83,0.84,0.84,0,0,1-.84-0.83V10.83A0.84,0.84,0,0,0,76.58,10a0.83,0.83,0,1,1,0-1.67"/><path class="cls-1" d="M85,0a0.84,0.84,0,0,0-.84.83V14.17a0.84,0.84,0,0,0,1.68,0V0.83A0.84,0.84,0,0,0,85,0"/><path class="cls-1" d="M95.1,1.67A0.84,0.84,0,0,1,94.26.83a0.84,0.84,0,0,0-1.68,0,0.84,0.84,0,0,0,.84.83,0.84,0.84,0,0,1,.84.83V5.83a0.84,0.84,0,0,1-.84.83,0.83,0.83,0,1,0,0,1.67,0.84,0.84,0,0,1,.84.83V12.5a0.84,0.84,0,0,1-.84.83,0.83,0.83,0,1,0,.84.83,0.84,0.84,0,0,1,.84-0.83,0.84,0.84,0,0,0,.84-0.83V9.17a0.84,0.84,0,0,0-.84-0.83,0.83,0.83,0,1,1,0-1.67,0.84,0.84,0,0,0,.84-0.83V2.5a0.84,0.84,0,0,0-.84-0.83"/><path class="cls-1" d="M135.49,1.67a0.84,0.84,0,0,1-.84-0.83,0.84,0.84,0,1,0-.84.83,0.84,0.84,0,0,1,.84.83h0a0.84,0.84,0,1,0,.84-0.83"/><path class="cls-1" d="M128.76,13.33h0a0.84,0.84,0,0,1-.84-0.83h0a0.84,0.84,0,0,0-.84-0.83h0a0.84,0.84,0,0,1-.84-0.83h0V4.17a0.84,0.84,0,0,1,.84-0.83,0.84,0.84,0,0,0,.84-0.83h0a0.84,0.84,0,0,1,.84-0.83A0.84,0.84,0,0,0,129.6.83a0.84,0.84,0,0,0-1.68,0,0.84,0.84,0,0,1-.84.83,0.84,0.84,0,0,0-.84.83,0.84,0.84,0,0,1-.84.83,0.84,0.84,0,0,0-.84.83v6.67a0.84,0.84,0,0,0,.84.83,0.84,0.84,0,0,1,.84.83h0a0.84,0.84,0,0,0,.84.83,0.84,0.84,0,0,1,.84.83h0a0.84,0.84,0,1,0,.84-0.83"/><path class="cls-1" d="M135.49,13.33a0.84,0.84,0,0,0,.84-0.83V9.17a0.84,0.84,0,0,0-.84-0.83,0.84,0.84,0,0,1-.84-0.83,0.84,0.84,0,1,0-.84.83,0.84,0.84,0,0,1,.84.83h0V12.5h0a0.84,0.84,0,0,1-.84.83,0.83,0.83,0,1,0,.84.83,0.84,0.84,0,0,1,.84-0.83"/><path class="cls-1" d="M2.52,6.67a0.84,0.84,0,0,1-.84-0.83V2.5a0.84,0.84,0,0,1,.84-0.83A0.84,0.84,0,0,0,3.37.83a0.84,0.84,0,0,0-1.68,0,0.84,0.84,0,0,1-.84.83A0.84,0.84,0,0,0,0,2.5V5.83a0.84,0.84,0,0,0,.84.83,0.84,0.84,0,0,1,.84.83,0.84,0.84,0,1,0,.84-0.83"/><path class="cls-1" d="M10.94,13.33a0.84,0.84,0,0,0,.84-0.83V9.17a0.84,0.84,0,0,0-.84-0.83A0.84,0.84,0,0,1,10.1,7.5h0a0.84,0.84,0,1,0-.84.83h0a0.84,0.84,0,0,1,.84.83h0v3.31h0a0.84,0.84,0,0,1-.84.84h0a0.83,0.83,0,1,0,.84.83h0a0.84,0.84,0,0,1,.84-0.83"/><path class="cls-1" d="M2.52,13.33a0.84,0.84,0,0,1-.84-0.83A0.84,0.84,0,0,0,0,12.5a0.84,0.84,0,0,0,.84.83,0.84,0.84,0,0,1,.84.83,0.84,0.84,0,1,0,.84-0.83"/><path class="cls-1" d="M8.41,0.83a0.84,0.84,0,1,1,.84.83A0.84,0.84,0,0,1,8.41.83"/><path class="cls-1" d="M152.32,0a0.84,0.84,0,0,1,.84.83V14.17a0.84,0.84,0,0,1-1.68,0V0.83A0.84,0.84,0,0,1,152.32,0"/><path class="cls-1" d="M142.23,0a0.84,0.84,0,0,1,.84.83V14.17a0.84,0.84,0,0,1-1.68,0V0.83A0.84,0.84,0,0,1,142.23,0"/><path class="cls-1" d="M148.12,7.5a0.84,0.84,0,1,1-.84-0.83,0.84,0.84,0,0,1,.84.83"/></svg>