<?xml version="1.0" encoding="utf-8"?>
<!-- Generator: Adobe Illustrator 16.0.0, SVG Export Plug-In . SVG Version: 6.00 Build 0)  -->
<!DOCTYPE svg PUBLIC "-//W3C//DTD SVG 1.1//EN" "http://www.w3.org/Graphics/SVG/1.1/DTD/svg11.dtd">
<svg version="1.1" id="Layer_1" xmlns="http://www.w3.org/2000/svg" xmlns:xlink="http://www.w3.org/1999/xlink" x="0px" y="0px"
	 width="169.999px" height="15px" viewBox="0 0 169.999 15" enable-background="new 0 0 169.999 15" xml:space="preserve">
<g>
	<path fill="#191919" d="M101.831,0c-0.465,0-0.842,0.372-0.842,0.832v13.334c0,0.463,0.377,0.834,0.842,0.834
		c0.463,0,0.84-0.371,0.84-0.834V0.832C102.67,0.372,102.293,0,101.831,0"/>
	<path fill="#191919" d="M110.245,8.333L110.245,8.333c0.465,0,0.844-0.374,0.844-0.833l0,0c0-0.461,0.375-0.833,0.842-0.833
		c0.463,0,0.842-0.372,0.842-0.833V2.5c0-0.46-0.379-0.833-0.842-0.833c-0.467,0-0.842-0.374-0.842-0.834l0,0
		c0-0.46-0.379-0.832-0.844-0.832s-0.841,0.372-0.841,0.832c0,0.461,0.376,0.834,0.841,0.834s0.844,0.374,0.844,0.833v3.333
		c0,0.461-0.379,0.833-0.844,0.833s-0.841,0.372-0.841,0.833c0,0.458-0.376,0.833-0.841,0.833c-0.467,0-0.842,0.374-0.842,0.834
		c0,0.461,0.375,0.834,0.842,0.834c0.465,0,0.841,0.374,0.841,0.834V12.5c0,0.461,0.376,0.833,0.841,0.833s0.844,0.373,0.844,0.833
		c0,0.463,0.375,0.834,0.842,0.834c0.463,0,0.842-0.371,0.842-0.834c0-0.46-0.379-0.833-0.842-0.833
		c-0.467,0-0.842-0.372-0.842-0.833v-1.666c0-0.46-0.379-0.834-0.844-0.834s-0.841-0.373-0.841-0.834
		C109.404,8.707,109.78,8.333,110.245,8.333"/>
	<path fill="#191919" d="M118.663,0c-0.467,0-0.842,0.372-0.842,0.832v13.334c0,0.463,0.375,0.834,0.842,0.834
		c0.465,0,0.84-0.371,0.84-0.834V0.832C119.502,0.372,119.127,0,118.663,0"/>
	<path fill="#191919" d="M164.108,0c-0.465,0-0.842,0.372-0.842,0.832v13.334c0,0.463,0.377,0.834,0.842,0.834
		s0.841-0.371,0.841-0.834V0.832C164.949,0.372,164.573,0,164.108,0"/>
	<path fill="#191919" d="M169.999,0.832c0,0.461-0.377,0.834-0.842,0.834s-0.842-0.374-0.842-0.834c0-0.46,0.377-0.832,0.842-0.832
		S169.999,0.372,169.999,0.832"/>
	<path fill="#191919" d="M159.899,0.832c0,0.461-0.375,0.834-0.84,0.834c-0.467,0-0.844-0.374-0.844-0.834
		c0-0.46,0.377-0.832,0.844-0.832C159.524,0,159.899,0.372,159.899,0.832"/>
	<path fill="#191919" d="M51.335,0c-0.467,0-0.842,0.372-0.842,0.832v13.334c0,0.463,0.375,0.834,0.842,0.834
		c0.465,0,0.842-0.371,0.842-0.834V0.832C52.177,0.372,51.8,0,51.335,0"/>
	<path fill="#191919" d="M57.226,7.5c0-0.461,0.377-0.833,0.842-0.833c0.464,0,0.842,0.372,0.842,0.833
		c0,0.458-0.377,0.833-0.842,0.833C57.603,8.333,57.226,7.958,57.226,7.5"/>
	<path fill="#191919" d="M60.593,14.167c0-0.46,0.375-0.833,0.84-0.833c0.467,0,0.844-0.372,0.844-0.833
		c0-0.459-0.377-0.832-0.844-0.832c-0.463,0-0.84,0.373-0.84,0.832c0,0.461-0.377,0.833-0.842,0.833s-0.842,0.373-0.842,0.833
		c0,0.463,0.377,0.834,0.842,0.834S60.593,14.629,60.593,14.167L60.593,14.167z"/>
	<path fill="#191919" d="M61.433,1.667c-0.463,0-0.84-0.374-0.84-0.834l0,0c0-0.46-0.377-0.832-0.842-0.832
		s-0.842,0.372-0.842,0.832c0,0.461,0.377,0.834,0.842,0.834S60.593,2.04,60.593,2.5c0,0.461,0.377,0.832,0.84,0.832
		c0.467,0,0.844-0.371,0.844-0.832C62.276,2.04,61.899,1.667,61.433,1.667"/>
	<path fill="#191919" d="M19.354,13.333c-0.465,0-0.841-0.372-0.841-0.833V0.832c0-0.46-0.377-0.832-0.842-0.832
		s-0.841,0.372-0.841,0.832V12.5c0,0.461,0.376,0.833,0.841,0.833s0.842,0.373,0.842,0.833c0,0.463,0.376,0.834,0.841,0.834
		s0.841-0.371,0.841-0.834C20.196,13.707,19.819,13.333,19.354,13.333"/>
	<path fill="#191919" d="M27.771,13.333L27.771,13.333c0.465,0,0.842-0.372,0.842-0.833V0.832c0-0.46-0.377-0.832-0.842-0.832
		s-0.842,0.372-0.842,0.832v11.667V12.5c0,0.461-0.376,0.833-0.842,0.833h-0.002c-0.463,0-0.84,0.373-0.84,0.833
		c0,0.463,0.377,0.834,0.84,0.834c0.466,0,0.842-0.371,0.842-0.834h0.002C26.929,13.707,27.306,13.333,27.771,13.333"/>
	<path fill="#191919" d="M34.503,0c-0.465,0-0.842,0.372-0.842,0.832v13.334c0,0.463,0.377,0.834,0.842,0.834
		s0.842-0.371,0.842-0.834V0.832C35.345,0.372,34.968,0,34.503,0"/>
	<path fill="#191919" d="M44.603,1.667c-0.466,0-0.842-0.374-0.842-0.834c0-0.46-0.377-0.832-0.842-0.832s-0.84,0.372-0.84,0.832
		c0,0.461,0.375,0.834,0.84,0.834S43.761,2.04,43.761,2.5v3.333c0,0.461-0.377,0.833-0.842,0.833s-0.84,0.372-0.84,0.833
		c0,0.458,0.375,0.833,0.84,0.833s0.842-0.375,0.842-0.833c0-0.461,0.376-0.833,0.842-0.833c0.465,0,0.841-0.372,0.841-0.833V2.5
		C45.443,2.04,45.067,1.667,44.603,1.667"/>
	<path fill="#191919" d="M68.167,0c-0.465,0-0.842,0.372-0.842,0.832v13.334c0,0.463,0.377,0.834,0.842,0.834
		s0.842-0.371,0.842-0.834V0.832C69.009,0.372,68.632,0,68.167,0"/>
	<path fill="#191919" d="M76.581,8.333L76.581,8.333c0.465,0,0.842-0.374,0.842-0.833l0,0c0-0.461,0.377-0.833,0.842-0.833
		c0.466,0,0.844-0.372,0.844-0.833V2.5c0-0.46-0.378-0.833-0.844-0.833c-0.465,0-0.842-0.374-0.842-0.834l0,0
		c0-0.46-0.377-0.832-0.842-0.832c-0.463,0-0.84,0.372-0.84,0.832c0,0.461,0.377,0.834,0.84,0.834c0.465,0,0.842,0.374,0.842,0.833
		v3.333c0,0.461-0.377,0.833-0.842,0.833c-0.463,0-0.84,0.372-0.84,0.833c0,0.458-0.378,0.833-0.841,0.833
		c-0.465,0-0.842,0.374-0.842,0.834c0,0.461,0.377,0.834,0.842,0.834c0.463,0,0.841,0.374,0.841,0.834V12.5
		c0,0.461,0.377,0.833,0.84,0.833c0.465,0,0.842,0.373,0.842,0.833c0,0.463,0.377,0.834,0.842,0.834
		c0.466,0,0.844-0.371,0.844-0.834c0-0.46-0.378-0.833-0.844-0.833c-0.465,0-0.842-0.372-0.842-0.833v-1.666
		c0-0.46-0.377-0.834-0.842-0.834c-0.463,0-0.84-0.373-0.84-0.834C75.741,8.707,76.118,8.333,76.581,8.333"/>
	<path fill="#191919" d="M84.999,0c-0.465,0-0.842,0.372-0.842,0.832v13.334c0,0.463,0.377,0.834,0.842,0.834
		c0.462,0,0.841-0.371,0.841-0.834V0.832C85.84,0.372,85.461,0,84.999,0"/>
	<path fill="#191919" d="M95.096,1.667c-0.465,0-0.84-0.374-0.84-0.834c0-0.46-0.377-0.832-0.842-0.832s-0.842,0.372-0.842,0.832
		c0,0.461,0.377,0.834,0.842,0.834S94.256,2.04,94.256,2.5v3.333c0,0.461-0.377,0.833-0.842,0.833S92.573,7.039,92.573,7.5
		c0,0.458,0.377,0.833,0.842,0.833s0.842,0.373,0.842,0.833V12.5c0,0.461-0.377,0.833-0.842,0.833s-0.842,0.373-0.842,0.833
		c0,0.463,0.377,0.834,0.842,0.834s0.842-0.371,0.842-0.834c0-0.46,0.375-0.833,0.84-0.833s0.842-0.372,0.842-0.833V9.167
		c0-0.46-0.377-0.833-0.842-0.833s-0.84-0.375-0.84-0.833c0-0.461,0.375-0.833,0.84-0.833s0.842-0.372,0.842-0.833V2.5
		C95.938,2.04,95.561,1.667,95.096,1.667"/>
	<path fill="#191919" d="M135.495,1.667c-0.469,0-0.844-0.374-0.844-0.834c0-0.46-0.375-0.832-0.842-0.832
		c-0.465,0-0.842,0.372-0.842,0.832c0,0.461,0.377,0.834,0.842,0.834c0.467,0,0.842,0.374,0.842,0.833l0,0
		c0.002,0.461,0.375,0.832,0.844,0.832c0.463,0,0.84-0.371,0.84-0.832C136.334,2.04,135.958,1.667,135.495,1.667"/>
	<path fill="#191919" d="M128.76,13.333h-0.002c-0.465,0-0.84-0.372-0.84-0.833v-0.002c0-0.46-0.379-0.83-0.842-0.83l0,0
		c-0.465,0-0.842-0.374-0.842-0.834c0-0.002,0-0.002,0-0.002V4.166c0-0.459,0.377-0.833,0.842-0.833s0.842-0.371,0.842-0.832l0,0
		c0-0.46,0.379-0.833,0.842-0.833c0.465,0,0.842-0.374,0.842-0.834c0-0.46-0.377-0.832-0.842-0.832
		c-0.463,0-0.842,0.372-0.842,0.832c0,0.461-0.377,0.834-0.842,0.834s-0.842,0.374-0.842,0.833c0,0.461-0.377,0.832-0.842,0.832
		c-0.463,0-0.842,0.375-0.842,0.833v6.669c0,0.46,0.379,0.834,0.842,0.834c0.465,0,0.842,0.373,0.842,0.832l0,0
		c0,0.461,0.377,0.833,0.842,0.833c0.463,0,0.842,0.373,0.842,0.833l0,0c0,0.463,0.379,0.834,0.842,0.834
		c0.465,0,0.842-0.371,0.842-0.834C129.602,13.707,129.225,13.333,128.76,13.333"/>
	<path fill="#191919" d="M135.495,13.333c0.463,0,0.84-0.372,0.84-0.833V9.167c0-0.46-0.377-0.834-0.84-0.834
		c-0.469,0-0.844-0.374-0.844-0.833c0-0.461-0.375-0.833-0.842-0.833c-0.465,0-0.842,0.372-0.842,0.833
		c0,0.458,0.377,0.833,0.842,0.833c0.467,0,0.842,0.374,0.842,0.834l0,0v3.332V12.5c0,0.461-0.375,0.833-0.842,0.833
		c-0.465,0-0.842,0.373-0.842,0.833c0,0.463,0.377,0.834,0.842,0.834c0.467,0,0.842-0.371,0.842-0.834
		C134.651,13.707,135.026,13.333,135.495,13.333"/>
	<path fill="#191919" d="M2.524,6.667c-0.465,0-0.842-0.372-0.842-0.833V2.5c0-0.46,0.377-0.833,0.842-0.833
		c0.464,0,0.843-0.374,0.843-0.834C3.367,0.372,2.989,0,2.524,0C2.06,0,1.683,0.372,1.683,0.832c0,0.461-0.377,0.834-0.842,0.834
		S0,2.04,0,2.5v3.333c0,0.461,0.376,0.833,0.841,0.833S1.683,7.039,1.683,7.5c0,0.458,0.377,0.833,0.842,0.833
		c0.464,0,0.843-0.374,0.843-0.833C3.367,7.039,2.989,6.667,2.524,6.667"/>
	<path fill="#191919" d="M10.941,13.333c0.462,0,0.838-0.372,0.838-0.833V9.167c0-0.46-0.376-0.833-0.838-0.834
		c-0.466,0-0.841-0.374-0.841-0.833h-0.004c0-0.461-0.375-0.833-0.84-0.833c-0.466,0-0.842,0.372-0.842,0.833
		c0,0.458,0.376,0.833,0.842,0.833h0.002l0,0c0.463,0,0.842,0.374,0.842,0.834c0,0-0.004,0.008-0.004,0.014v3.306
		c0,0.005,0.004,0.011,0.004,0.011c0,0.465-0.379,0.837-0.842,0.837H9.257c-0.466,0-0.842,0.373-0.842,0.833
		C8.415,14.629,8.791,15,9.257,15c0.465,0,0.84-0.371,0.84-0.834h0.004C10.101,13.707,10.476,13.333,10.941,13.333"/>
	<path fill="#191919" d="M2.524,13.333c-0.465,0-0.842-0.372-0.842-0.833c0-0.459-0.377-0.832-0.842-0.832S0,12.042,0,12.5
		c0,0.461,0.376,0.833,0.841,0.833s0.842,0.373,0.842,0.833C1.683,14.629,2.06,15,2.524,15c0.464,0,0.843-0.371,0.843-0.834
		C3.367,13.707,2.989,13.333,2.524,13.333"/>
	<path fill="#191919" d="M8.413,0.832C8.413,0.372,8.791,0,9.257,0c0.465,0,0.84,0.372,0.84,0.832c0,0.461-0.375,0.834-0.84,0.834
		C8.791,1.667,8.413,1.293,8.413,0.832"/>
	<path fill="#191919" d="M152.325,0c0.465,0,0.842,0.372,0.842,0.832v13.334c0,0.463-0.377,0.834-0.842,0.834
		s-0.842-0.371-0.842-0.834V0.832C151.483,0.372,151.86,0,152.325,0"/>
	<path fill="#191919" d="M142.227,0c0.465,0,0.842,0.372,0.842,0.832v13.334c0,0.463-0.377,0.834-0.842,0.834
		c-0.467,0-0.842-0.371-0.842-0.834V0.832C141.385,0.372,141.76,0,142.227,0"/>
	<path fill="#191919" d="M148.116,7.5c0,0.458-0.377,0.833-0.84,0.833c-0.467,0-0.842-0.374-0.842-0.833
		c0-0.461,0.375-0.833,0.842-0.833C147.739,6.667,148.116,7.039,148.116,7.5"/>
</g>
</svg>
