<?xml version="1.0" encoding="utf-8"?>
<!-- Generator: Adobe Illustrator 16.0.0, SVG Export Plug-In . SVG Version: 6.00 Build 0)  -->
<!DOCTYPE svg PUBLIC "-//W3C//DTD SVG 1.1//EN" "http://www.w3.org/Graphics/SVG/1.1/DTD/svg11.dtd">
<svg version="1.1" id="Layer_1" xmlns="http://www.w3.org/2000/svg" xmlns:xlink="http://www.w3.org/1999/xlink" x="0px" y="0px"
	 width="18.399px" height="14px" viewBox="0 0 18.399 14" enable-background="new 0 0 18.399 14" xml:space="preserve">
<path fill="#69F7EB" d="M18.399,1.657c-0.677,0.282-1.403,0.472-2.171,0.558c0.783-0.438,1.382-1.133,1.662-1.955
	c-0.729,0.404-1.535,0.697-2.396,0.855C14.804,0.428,13.824,0,12.74,0c-2.086,0-3.775,1.582-3.775,3.535
	c0,0.275,0.032,0.547,0.096,0.805C5.924,4.192,3.142,2.785,1.28,0.648C0.957,1.167,0.77,1.776,0.77,2.424
	c0,1.228,0.667,2.307,1.678,2.943c-0.618-0.02-1.199-0.178-1.709-0.443c0,0.016,0,0.029,0,0.045c0,1.713,1.301,3.141,3.029,3.467
	C3.448,8.518,3.115,8.559,2.771,8.559c-0.245,0-0.48-0.021-0.709-0.064c0.481,1.403,1.873,2.428,3.527,2.455
	c-1.293,0.948-2.92,1.514-4.69,1.514c-0.305,0-0.604-0.019-0.899-0.051C1.672,13.415,3.653,14,5.786,14
	c6.943,0,10.741-5.386,10.741-10.056c0-0.154-0.005-0.306-0.013-0.459C17.254,2.988,17.895,2.365,18.399,1.657z"/>
</svg>
