<?xml version="1.0" encoding="utf-8"?>
<!-- Generator: Adobe Illustrator 16.0.0, SVG Export Plug-In . SVG Version: 6.00 Build 0)  -->
<!DOCTYPE svg PUBLIC "-//W3C//DTD SVG 1.1//EN" "http://www.w3.org/Graphics/SVG/1.1/DTD/svg11.dtd">
<svg version="1.1" id="Layer_1" xmlns="http://www.w3.org/2000/svg" xmlns:xlink="http://www.w3.org/1999/xlink" x="0px" y="0px"
	 width="16.408px" height="14.271px" viewBox="0 0 16.408 14.271" enable-background="new 0 0 16.408 14.271" xml:space="preserve">
<path fill="#FFFFFF" d="M16.326,3.428c-0.918,5.148-6.04,9.508-7.581,10.503s-2.946-0.399-3.454-1.452
	C4.705,11.275,2.957,4.755,2.5,4.215c-0.459-0.541-1.834,0.54-1.834,0.54L0,3.883c0,0,2.791-3.32,4.916-3.738
	c2.251-0.439,2.245,3.447,2.788,5.607C8.227,7.84,8.58,9.035,9.037,9.035c0.458,0,1.333-1.164,2.289-2.95
	c0.96-1.788-0.04-3.364-1.915-2.243C10.161-0.643,17.242-1.723,16.326,3.428"/>
</svg>
